<svg width="1359" height="611" viewBox="0 0 1359 611" fill="none" xmlns="http://www.w3.org/2000/svg">
<g opacity="0.45">
<path opacity="0.9" fill-rule="evenodd" clip-rule="evenodd" d="M1200.4 569.578C1185.36 587.667 1154.83 584.954 1149.82 558.502C1147.43 545.384 1150.91 529.559 1156.36 518.479C1168.57 494.286 1190.59 474.39 1215.67 467.833C1215.67 482.757 1215.67 502.427 1215.23 517.576C1214.79 534.308 1211.31 556.237 1200.4 569.578ZM957.74 212.116C971.696 213.019 982.817 228.844 979.109 255.751C974.53 287.634 949.019 321.772 920.024 329.459C915.441 318.155 913.265 295.092 915.878 272.483C920.677 231.105 941.171 211.209 957.74 212.116V212.116ZM414.202 366.314C392.616 336.468 393.487 300.293 400.249 265.926C421.395 315.215 477.867 323.809 512.75 316.572C508.173 354.558 488.98 387.794 455.845 387.794C437.313 388.019 423.791 379.654 414.202 366.314ZM490.511 227.034C501.149 238.298 508.326 254.716 511.611 272.939C511.631 272.937 511.66 273.161 511.66 273.161C511.647 273.086 511.627 273.014 511.611 272.939C487.21 276.546 463.681 271.798 446.47 258.01C434.045 247.837 430.771 231.785 436.004 222.062C443.632 208.045 466.529 201.939 490.511 227.034ZM158.24 41.6338C173.28 23.3229 203.805 26.2576 208.602 52.7139C210.998 65.6003 207.728 81.4271 202.281 92.5053C190.066 116.697 168.046 136.593 142.972 143.377C142.972 128.232 142.753 108.785 143.413 93.6376C143.846 76.9057 147.337 54.7474 158.24 41.6338V41.6338ZM1271.27 433.692C1271.48 355.01 1271.27 276.327 1271.27 197.643C1271.27 178.2 1217.41 177.066 1215.67 196.74C1215.67 204.652 1215.67 212.792 1215.45 220.705C1214.58 263.891 1194.74 344.608 1161.82 374.001C1152.88 381.917 1144.81 382.368 1139.14 378.07C1134.12 374.226 1132.81 364.507 1132.81 356.14V345.288C1132.81 296.677 1133.04 246.481 1132.81 197.868C1132.81 178.423 1078.96 177.066 1077.22 196.74C1077.22 241.958 1077.22 285.824 1077.44 330.591C1041.9 389.377 959.704 416.962 925.691 347.321C946.841 355.688 969.295 351.617 984.559 343.252C1010.94 328.781 1031 304.816 1034.92 266.831C1038.63 155.587 896.914 140.442 865.296 253.718C860.066 272.483 857.232 292.606 857.888 312.276C858.537 331.042 862.245 348.451 868.568 363.828C857.01 375.584 843.712 383.723 830.415 383.273C812.968 382.593 814.718 360.211 814.718 347.321V262.533C814.718 252.36 814.718 242.185 813.842 232.239C811.012 202.619 789.206 179.103 758.684 177.066C715.293 176.39 684.771 218.219 669.728 264.118C669.512 238.569 669.728 223.418 669.728 197.643C669.512 178.423 619.584 177.066 613.914 197.416C606.719 223.193 583.17 243.315 561.149 255.297C554.393 238.341 545.892 222.742 534.118 209.403C485.712 154.909 415.729 164.861 374.735 209.852C342.25 245.578 332.444 310.016 349.883 355.233C337.02 371.064 319.362 383.95 303.663 383.273C295.811 382.82 291.451 378.07 289.488 370.61C287.525 363.373 287.964 354.785 287.964 347.321C287.964 319.058 287.743 290.796 287.964 262.533C287.964 252.36 287.964 242.185 287.094 232.239C284.256 202.619 267.468 178.876 235.638 176.844C180.911 174.353 158.891 229.299 142.753 274.517V177.973C154.311 175.937 165.433 172.997 176.548 169.608C297.119 133.656 273.789 2.29113 183.966 0.0323427C123.353 -1.32331 87.3757 40.0509 87.8155 102.906V143.604C66.011 140.215 49.6572 110.822 40.504 91.8294C39.192 88.8889 37.8836 85.9485 36.5789 83.0081C35.4895 80.0695 32.4366 78.4905 29.5972 79.3936C27.2031 80.0695 24.8053 80.9765 22.4039 81.8796C13.6869 85.9504 6.48619 92.9597 3.0027 102.23C-3.31837 118.734 3.0027 136.371 14.1175 148.805C32.4366 168.703 61.6534 175.937 87.3757 177.293C87.1567 255.751 87.3757 333.982 87.3757 412.438C88.2479 423.518 102.859 426.459 111.361 426.682C120.302 426.91 139.703 423.969 139.924 411.31L140.578 401.585C144.284 366.768 176.548 227.489 217.319 227.261C227.352 227.261 232.368 234.045 232.368 244.22V368.351C232.368 406.787 253.297 432.561 291.234 432.561C320.668 432.788 347.263 410.628 363.18 383.047C365.359 385.986 367.106 389.15 369.503 391.863C390.215 416.962 420.74 433.016 455.626 433.241C531.713 432.109 570.74 364.28 567.911 297.58C585.57 287.407 601.488 274.289 613.692 258.01V412.438C614.566 423.518 629.83 426.459 638.336 426.682C647.27 426.91 666.678 423.969 666.678 411.31L667.549 401.585L670.162 375.811C674.091 339.861 700.036 227.489 744.294 227.261C754.1 227.261 759.122 234.045 759.122 244.22V368.351C759.122 406.787 780.053 432.561 818.202 432.561C844.587 432.788 868.568 414.926 884.703 391.412C906.068 418.77 938.777 434.822 978.015 434.822C1024.02 434.822 1057.38 413.796 1079.62 379.88C1084.63 409.049 1099.68 432.109 1136.53 432.561C1174.68 432.788 1203.68 377.621 1215.67 344.381V433.241C1204.33 435.274 1193.21 438.215 1182.09 441.604C1061.52 477.33 1084.63 608.919 1174.46 610.956C1235.29 612.539 1271.04 571.161 1270.83 508.306C1270.83 497.68 1270.61 477.783 1270.83 467.381C1292.41 470.774 1308.98 500.394 1317.92 519.386C1319.45 522.325 1320.76 525.261 1321.85 528.202C1323.16 531.142 1325.99 532.498 1329.04 531.818C1331.44 531.142 1333.84 530.239 1336.02 529.105C1344.96 525.038 1352.15 518.256 1355.64 508.759C1361.96 492.254 1355.64 474.844 1344.3 462.407C1326.21 442.286 1296.77 435.274 1271.27 433.692V433.692Z" fill="#FFA638"/>
</g>
</svg>
